<svg xmlns="http://www.w3.org/2000/svg" width="920" height="560" viewBox="0 0 920 560">
<style>
text { font-family: Arial, sans-serif; fill: #1f2933; }
.title { font-size: 24px; font-weight: 700; }
.subtitle { font-size: 13px; fill: #52606d; }
.axis { stroke: #9aa5b1; stroke-width: 1; }
.grid { stroke: #e4e7eb; stroke-width: 1; }
.label { font-size: 14px; }
.value { font-size: 13px; font-weight: 700; }
</style>
<rect width="100%" height="100%" fill="#ffffff"/>
<text x="30" y="38" class="title">Switch Forwarded Packet Count</text>
<text x="30" y="62" class="subtitle">Baseline: isc4_2phase_baseline.txt    TRACI: isc4_2phase_traci.txt</text>
<line x1="90" y1="462.0" x2="880" y2="462.0" class="grid"/>
<text x="22" y="466.0" class="label">0</text>
<line x1="90" y1="386.0" x2="880" y2="386.0" class="grid"/>
<text x="22" y="390.0" class="label">60</text>
<line x1="90" y1="310.0" x2="880" y2="310.0" class="grid"/>
<text x="22" y="314.0" class="label">120</text>
<line x1="90" y1="234.0" x2="880" y2="234.0" class="grid"/>
<text x="22" y="238.0" class="label">180</text>
<line x1="90" y1="158.0" x2="880" y2="158.0" class="grid"/>
<text x="22" y="162.0" class="label">240</text>
<line x1="90" y1="82.0" x2="880" y2="82.0" class="grid"/>
<text x="22" y="86.0" class="label">300</text>
<line x1="90" y1="82" x2="90" y2="462" class="axis"/>
<line x1="90" y1="462" x2="880" y2="462" class="axis"/>
<rect x="142.7" y="208.7" width="72" height="253.3" fill="#4c78a8" rx="3"/>
<text x="178.66666666666666" y="200.66666666666669" class="value" text-anchor="middle">200</text>
<text x="178.66666666666666" y="505" class="subtitle" text-anchor="middle">Baseline</text>
<rect x="228.7" y="221.3" width="72" height="240.7" fill="#f58518" rx="3"/>
<text x="264.66666666666663" y="213.33333333333334" class="value" text-anchor="middle">190</text>
<text x="264.66666666666663" y="505" class="subtitle" text-anchor="middle">TRACI</text>
<text x="221.66666666666666" y="484" class="label" text-anchor="middle">Leaf</text>
<rect x="406.0" y="335.3" width="72" height="126.7" fill="#4c78a8" rx="3"/>
<text x="442.0" y="327.33333333333337" class="value" text-anchor="middle">100</text>
<text x="442.0" y="505" class="subtitle" text-anchor="middle">Baseline</text>
<rect x="492.0" y="335.3" width="72" height="126.7" fill="#f58518" rx="3"/>
<text x="528.0" y="327.33333333333337" class="value" text-anchor="middle">100</text>
<text x="528.0" y="505" class="subtitle" text-anchor="middle">TRACI</text>
<text x="485.0" y="484" class="label" text-anchor="middle">Spine</text>
<rect x="669.3" y="82.0" width="72" height="380.0" fill="#4c78a8" rx="3"/>
<text x="705.3333333333333" y="74.0" class="value" text-anchor="middle">300</text>
<text x="705.3333333333333" y="505" class="subtitle" text-anchor="middle">Baseline</text>
<rect x="755.3" y="94.7" width="72" height="367.3" fill="#f58518" rx="3"/>
<text x="791.3333333333333" y="86.66666666666669" class="value" text-anchor="middle">290</text>
<text x="791.3333333333333" y="505" class="subtitle" text-anchor="middle">TRACI</text>
<text x="748.3333333333333" y="484" class="label" text-anchor="middle">Total</text>
<text x="30" y="536" class="subtitle">Total reduction: 300 -&gt; 290 (3.3% fewer forwarded packets)</text>
<rect x="695" y="22" width="14" height="14" fill="#4c78a8"/>
<text x="715" y="34" class="label">Baseline</text>
<rect x="800" y="22" width="14" height="14" fill="#f58518"/>
<text x="820" y="34" class="label">TRACI</text>
</svg>
